<svg id="Layer_1" data-name="Layer 1" xmlns="http://www.w3.org/2000/svg" viewBox="0 0 184.03 170.73"><defs><style>.cls-1,.cls-2{fill:#006838;}.cls-1,.cls-3,.cls-4{stroke:#006838;stroke-linecap:round;stroke-linejoin:round;}.cls-1,.cls-4{stroke-width:6px;}.cls-3,.cls-4{fill:none;}.cls-3{stroke-width:8px;}</style></defs><line class="cls-1" x1="46.08" y1="58.36" x2="136.12" y2="37.92"/><circle class="cls-2" cx="91.1" cy="48.14" r="8.57"/><line class="cls-1" x1="91.1" y1="126.13" x2="91.1" y2="43.3"/><line class="cls-3" x1="71.52" y1="125.05" x2="110.71" y2="125.05"/><polygon class="cls-4" points="53.19 65.74 35.03 95.69 71.99 95.69 53.19 65.74"/><path class="cls-2" d="M53.5,115.49c11.85,0,21.46-8.87,21.46-19.8H32C32,106.62,41.64,115.49,53.5,115.49Z"/><polygon class="cls-4" points="130.63 48.14 112.46 78.09 149.43 78.09 130.63 48.14"/><path class="cls-2" d="M130.93,97.89c11.86,0,21.47-8.87,21.47-19.8H109.47C109.47,89,119.08,97.89,130.93,97.89Z"/></svg>