<svg id="Layer_1" data-name="Layer 1" xmlns="http://www.w3.org/2000/svg" viewBox="0 0 183.29 167.48"><defs><style>.cls-1{fill:#006838;stroke-width:4px;}.cls-1,.cls-2{stroke:#006838;stroke-linecap:round;stroke-linejoin:round;}.cls-2{fill:none;stroke-width:5px;}</style></defs><path class="cls-1" d="M98,59.67l11.4-11.4s8-8.2,1-15C103.68,26.83,96.91,35,96.91,35l-.78,1L95,35s-6.77-8.19-13.39-1.79c-7.08,6.84.95,15,.95,15L94,59.67l1.86,2Z"/><path class="cls-2" d="M66.51,129.86l3-9.4L58.31,106.67V91.47s1.4-4.4,5.6-2.8"/><path class="cls-2" d="M74.3,109.09s-1.2-5.22-9.39-9.42V78.08a4.74,4.74,0,0,1,6.59-3.6"/><path class="cls-2" d="M72.9,92.67v-21s3.8-4.4,7.2,0V91.6"/><path class="cls-2" d="M81.1,75.28s7.4-1.8,7,4.8V96.67"/><path class="cls-2" d="M88.1,80.08s6.34-1.2,7.17,4.19v32.59l-5,4.4-1.2,12.8"/><path class="cls-2" d="M124.5,129.86l-3-9.4,11.2-13.79V91.47s-1.4-4.4-5.6-2.8"/><path class="cls-2" d="M116.7,109.09s1.2-5.22,9.4-9.42V78.08s-1-5.4-6.6-3.6"/><path class="cls-2" d="M118.1,92.67v-21s-3.8-4.4-7.2,0V91.6"/><path class="cls-2" d="M109.9,75.28s-7.39-1.8-7,4.8l0,16.59"/><path class="cls-2" d="M102.91,80.08s-6.34-1.2-7.17,4.19v32.59l5,4.4,1.2,12.8"/></svg>