<svg id="Layer_1" data-name="Layer 1" xmlns="http://www.w3.org/2000/svg" viewBox="0 0 180.62 169.01"><defs><style>.cls-1,.cls-2{fill:#006838;}.cls-1,.cls-3{stroke:#006838;stroke-linecap:round;stroke-linejoin:round;stroke-width:6px;}.cls-3{fill:none;}</style></defs><polygon class="cls-1" points="54.62 70.2 40.26 93.87 69.49 93.87 54.62 70.2"/><path class="cls-2" d="M54.87,109.53c9.73,0,17.61-7,17.61-15.66H37.26C37.26,102.52,45.15,109.53,54.87,109.53Z"/><polygon class="cls-1" points="133.39 70.2 119.03 93.87 148.25 93.87 133.39 70.2"/><path class="cls-2" d="M133.65,109.53c9.74,0,17.63-7,17.63-15.66H116C116,102.52,123.92,109.53,133.65,109.53Z"/><circle class="cls-2" cx="93.8" cy="41.94" r="11.05"/><line class="cls-1" x1="52.4" y1="60.06" x2="135.19" y2="60.06"/><line class="cls-3" x1="86.88" y1="96.3" x2="86.88" y2="135.49"/><line class="cls-3" x1="101.34" y1="96.3" x2="101.34" y2="135.49"/><rect class="cls-1" x="86.88" y="60.06" width="14.46" height="36.24"/></svg>