<svg id="Layer_1" data-name="Layer 1" xmlns="http://www.w3.org/2000/svg" viewBox="0 0 1032.21 173.31"><defs><style>.cls-1{font-size:48.87px;font-family:Qaligo-Regular, Qaligo;letter-spacing:0.12em;}.cls-1,.cls-6{fill:#006838;}.cls-2{letter-spacing:0.03em;}.cls-3{letter-spacing:0.12em;}.cls-4{letter-spacing:0.1em;}.cls-5{letter-spacing:0.16em;}</style></defs><g id="Layer_2" data-name="Layer 2"><text class="cls-1" transform="translate(37.43 123.79)">M<tspan class="cls-2" x="92.5" y="0">A</tspan><tspan class="cls-3" x="166.49" y="0">J</tspan><tspan class="cls-4" x="201.28" y="0" xml:space="preserve">A       C</tspan><tspan class="cls-5" x="514.03" y="0">O</tspan><tspan class="cls-4" x="599.25" y="0">CONUT</tspan></text><path class="cls-6" d="M347,26.36a34.67,34.67,0,0,1,8.94-2.23,38.74,38.74,0,0,1,9.38,0,31,31,0,0,1,9.25,2.67,25.73,25.73,0,0,1,7.95,5.75,26.55,26.55,0,0,1,5.12,8.26,43.37,43.37,0,0,1,2.2,9.15,22.29,22.29,0,0,1,.26,2.29l.23,2.29.26,4.55c0,1.52.09,3,.11,4.54s0,3,0,4.55v-.1c.45,7.46,1.33,14.92,1.43,22.41s0,15-.5,22.48a126.85,126.85,0,0,1-3.66,22.36A55.72,55.72,0,0,1,384,146.19a21.46,21.46,0,0,1-3.26,4.94,7.68,7.68,0,0,1-5.2,2.87.3.3,0,0,1-.31-.29.3.3,0,0,1,.2-.29h0a7.06,7.06,0,0,0,3.6-3.52,23.49,23.49,0,0,0,1.91-4.91A80.89,80.89,0,0,0,383,134.35c1-7.21,1.51-14.54,2.13-21.87s1.27-14.71,1.75-22.1,1.45-14.81,1.61-22.22v-.1c.59-5.87.46-11.92-1.33-17.51l-.68-2.06c-.23-.69-.56-1.33-.84-2a36.36,36.36,0,0,0-1.94-3.78,35,35,0,0,0-5.07-6.43,27.8,27.8,0,0,0-6.44-4.82,34,34,0,0,0-7.74-2.95A60.86,60.86,0,0,0,347.13,27h0a.32.32,0,0,1-.32-.3A.33.33,0,0,1,347,26.36Z"/><path class="cls-6" d="M436.57,27a60.93,60.93,0,0,0-17.35,1.56,34.32,34.32,0,0,0-7.74,2.95A27.8,27.8,0,0,0,405,36.28,34.93,34.93,0,0,0,400,42.71a38.49,38.49,0,0,0-2,3.78c-.27.67-.6,1.31-.84,2l-.68,2.06c-1.79,5.59-1.92,11.64-1.32,17.51v.1c.16,7.41,1.14,14.84,1.6,22.22s1.09,14.76,1.75,22.1,1.13,14.66,2.13,21.87A80.89,80.89,0,0,0,402.76,145a24.65,24.65,0,0,0,1.91,4.91,7.1,7.1,0,0,0,3.6,3.52h0a.31.31,0,0,1,.18.39.3.3,0,0,1-.3.19,7.68,7.68,0,0,1-5.2-2.87,21.79,21.79,0,0,1-3.26-4.94,56.38,56.38,0,0,1-3.94-10.84A128.73,128.73,0,0,1,392.11,113c-.53-7.5-.6-15-.5-22.48s1-15,1.43-22.41v.1c0-1.52,0-3,0-4.55s.11-3,.1-4.54l.26-4.55.23-2.29c.07-.76.12-1.53.26-2.29a43.4,43.4,0,0,1,2.21-9.15,26.51,26.51,0,0,1,5.11-8.26,25.77,25.77,0,0,1,8-5.75,30.88,30.88,0,0,1,9.25-2.67,38.66,38.66,0,0,1,9.37,0,34.57,34.57,0,0,1,8.94,2.23.31.31,0,0,1-.12.59Z"/><path class="cls-6" d="M332.67,68.46A18.87,18.87,0,0,1,337,61a24.22,24.22,0,0,1,3.15-2.92,15.18,15.18,0,0,1,3.7-2.21c2.7-1.13,5.68-1.4,8.38-2s5.38-1.37,8.23-2a23.54,23.54,0,0,1,4.37-.56c.74,0,1.48,0,2.21.1s1.46.23,2.19.34a24.89,24.89,0,0,1,8.3,2.91,29,29,0,0,1,6.73,5.41,38.67,38.67,0,0,1,2.67,3.34,29.13,29.13,0,0,1,2.1,3.74.31.31,0,0,1-.15.42.3.3,0,0,1-.26,0h0a34.36,34.36,0,0,1-3.74-1.89c-1.24-.59-2.39-1.26-3.54-1.89-2.33-1.2-4.55-2.44-6.81-3.48a65.73,65.73,0,0,0-6.73-3.08,56.9,56.9,0,0,0-7.27-2.07,13.69,13.69,0,0,0-7.73.57c-2.48.94-4.45,2.9-6.42,4.5a34.92,34.92,0,0,1-3.09,2.22l-3.21,2.12c-2.17,1.42-4.37,2.87-6.91,4.25h0a.32.32,0,0,1-.44-.13A.33.33,0,0,1,332.67,68.46Z"/><path class="cls-6" d="M388.77,72.87c-2.81.84-5.44,1.39-8,1.94l-3.85.8a32.55,32.55,0,0,1-3.83.64c-2.57.29-5.4.32-7.87,1.42a13.89,13.89,0,0,0-6,5.15l-.55.82-.5.85c-.34.55-.65,1.12-.95,1.68l-.47.84c-.14.28-.28.56-.44.84a16.61,16.61,0,0,0-.84,1.69l-.4.84-.32.85-.33.82-.2.76-1,3.74-2.1,7.62-.51,2c-.16.65-.34,1.31-.53,2s-.34,1.34-.52,2-.34,1.37-.57,2.07v0a.31.31,0,0,1-.4.2.29.29,0,0,1-.19-.17c-.31-.67-.57-1.35-.82-2s-.41-1.4-.57-2.11-.29-1.43-.39-2.16-.18-1.44-.22-2.17a33.19,33.19,0,0,1,.59-8.67,25.72,25.72,0,0,1,1.24-4.22l.2-.53.12-.27.1-.25.07-.13.59-1,.59-1,.64-.94a19.67,19.67,0,0,1,1.34-1.81,12.66,12.66,0,0,1,1.52-1.67l.82-.78.88-.7a19.44,19.44,0,0,1,1.83-1.29c2.51-1.59,4.95-3,7.36-4.48s4.75-3.41,7.5-4.55A16,16,0,0,1,376,70.34a24.49,24.49,0,0,1,4.36-.19,19.54,19.54,0,0,1,8.47,2.12.33.33,0,0,1,.13.44.29.29,0,0,1-.19.15Z"/><path class="cls-6" d="M450.38,68.82c-2.53-1.38-4.73-2.83-6.91-4.25l-3.21-2.12a34.92,34.92,0,0,1-3.09-2.22c-2-1.6-3.94-3.56-6.42-4.5a13.69,13.69,0,0,0-7.73-.57,56.9,56.9,0,0,0-7.27,2.07A65.73,65.73,0,0,0,409,60.31c-2.26,1-4.47,2.28-6.81,3.48-1.15.63-2.3,1.3-3.54,1.89a35.12,35.12,0,0,1-3.73,1.89h0a.32.32,0,0,1-.42-.17.31.31,0,0,1,0-.25,30.38,30.38,0,0,1,2.1-3.74,38.67,38.67,0,0,1,2.67-3.34A29,29,0,0,1,406,54.66a24.89,24.89,0,0,1,8.3-2.91c.73-.11,1.45-.29,2.19-.34s1.48-.09,2.21-.1a23.54,23.54,0,0,1,4.37.56c2.85.64,5.51,1.4,8.23,2s5.68.9,8.38,2a15.18,15.18,0,0,1,3.7,2.21A24.22,24.22,0,0,1,446.54,61a18.87,18.87,0,0,1,4.32,7.42.32.32,0,0,1-.46.37Z"/><path class="cls-6" d="M394.68,72.27a19.54,19.54,0,0,1,8.47-2.12,24.49,24.49,0,0,1,4.36.19,16,16,0,0,1,4.24,1.07c2.75,1.14,5.1,3.08,7.5,4.55s4.86,2.89,7.36,4.48a19.44,19.44,0,0,1,1.83,1.29c.29.24.6.46.89.7l.81.78a12.66,12.66,0,0,1,1.52,1.67A19.67,19.67,0,0,1,433,86.69l.64.94.59,1,.59,1,.07.13.1.25.12.27.2.53a25.72,25.72,0,0,1,1.24,4.22,33.19,33.19,0,0,1,.59,8.67c0,.73-.13,1.45-.21,2.17s-.25,1.44-.4,2.16-.37,1.41-.57,2.11-.51,1.38-.81,2a.33.33,0,0,1-.43.16.35.35,0,0,1-.17-.19v0c-.23-.7-.4-1.39-.57-2.07s-.38-1.35-.52-2-.37-1.32-.52-2l-.52-2-2.1-7.62-1-3.74-.2-.76-.33-.82-.32-.85-.4-.84a16.61,16.61,0,0,0-.84-1.69c-.15-.28-.3-.56-.44-.84l-.46-.84c-.31-.56-.62-1.13-1-1.68l-.5-.85-.55-.82a13.89,13.89,0,0,0-6-5.15c-2.47-1.1-5.3-1.13-7.87-1.42a32.55,32.55,0,0,1-3.83-.64l-3.85-.8c-2.59-.55-5.22-1.1-8-1.94h0a.32.32,0,0,1-.06-.59Z"/><path class="cls-6" d="M357.59,35.21a5.49,5.49,0,0,1,1.82-2.56,3.92,3.92,0,0,1,1.08-.62,1.87,1.87,0,0,1,1.2-.13c.87.18,1.88.92,2.7.9a2.87,2.87,0,0,0,2.15-1.25,12.25,12.25,0,0,1,1-1,6.26,6.26,0,0,1,1.06-.7,6.07,6.07,0,0,1,2.23-.95,6.55,6.55,0,0,1,2.53.22,8.47,8.47,0,0,1,2.83,1.41.52.52,0,0,1,.15.59,8.1,8.1,0,0,1-1.82,2.59,6.47,6.47,0,0,1-2.11,1.4,6,6,0,0,1-2.41.23,5.55,5.55,0,0,1-1.27-.11c-.43-.1-.89-.29-1.35-.45a2.87,2.87,0,0,0-2.49-.07c-.72.37-1.26,1.51-1.94,2.08a1.85,1.85,0,0,1-1.12.46,4.32,4.32,0,0,1-1.24,0,5.55,5.55,0,0,1-2.82-1.39A.51.51,0,0,1,357.59,35.21Z"/><path class="cls-6" d="M367.62,42.06a5.09,5.09,0,0,1,1.53-2.47,3.53,3.53,0,0,1,.93-.57,1.45,1.45,0,0,1,1.05-.07c.76.21,1.66,1,2.37,1a2.26,2.26,0,0,0,1.86-1.14,8.34,8.34,0,0,1,.83-1,4.24,4.24,0,0,1,.9-.66,4.65,4.65,0,0,1,1.93-.84,5.14,5.14,0,0,1,2.21.32,7.36,7.36,0,0,1,2.5,1.53.51.51,0,0,1,.14.58,7.49,7.49,0,0,1-1.53,2.5,5.09,5.09,0,0,1-1.81,1.3,4.76,4.76,0,0,1-2.1.13,4.82,4.82,0,0,1-1.11-.17,9.9,9.9,0,0,1-1.19-.51,2.28,2.28,0,0,0-2.17-.17c-.63.34-1.08,1.44-1.66,2a1.41,1.41,0,0,1-1,.41,3.72,3.72,0,0,1-1.09-.08,5.06,5.06,0,0,1-2.49-1.5A.55.55,0,0,1,367.62,42.06Z"/><path class="cls-6" d="M372.48,50.24a5,5,0,0,1,1.58-2.34,3.24,3.24,0,0,1,.91-.49,1.26,1.26,0,0,1,1,0c.71.27,1.52,1.12,2.19,1.19a2.07,2.07,0,0,0,1.81-1,11.11,11.11,0,0,1,.83-.93,4.73,4.73,0,0,1,.9-.58,4.15,4.15,0,0,1,1.86-.69,4.67,4.67,0,0,1,2.07.49,7.43,7.43,0,0,1,2.28,1.71.56.56,0,0,1,.1.59,7.21,7.21,0,0,1-1.58,2.37,4.82,4.82,0,0,1-1.79,1.16,4.2,4.2,0,0,1-2,0,4.54,4.54,0,0,1-1-.25,8.33,8.33,0,0,1-1.09-.59,2,2,0,0,0-2-.34c-.62.29-1.1,1.35-1.67,1.84a1.32,1.32,0,0,1-.94.34,3.12,3.12,0,0,1-1-.17,4.88,4.88,0,0,1-2.27-1.68A.6.6,0,0,1,372.48,50.24Z"/><path class="cls-6" d="M346.82,67.56a5.46,5.46,0,0,1-.13-3.07,4,4,0,0,1,.47-1.11,1.74,1.74,0,0,1,.86-.78c.78-.35,2-.33,2.64-.81a2.69,2.69,0,0,0,.93-2.21,11.82,11.82,0,0,1,.12-1.38,5.87,5.87,0,0,1,.4-1.16,5.66,5.66,0,0,1,1.17-2,6,6,0,0,1,2.1-1.26,8,8,0,0,1,3.05-.47.5.5,0,0,1,.47.38,7.93,7.93,0,0,1,.15,3.09,6.2,6.2,0,0,1-.8,2.31,5.76,5.76,0,0,1-1.74,1.54,5.22,5.22,0,0,1-1.05.63,9.87,9.87,0,0,1-1.33.4,2.65,2.65,0,0,0-2,1.36c-.35.71-.08,1.91-.26,2.75a1.8,1.8,0,0,1-.6,1,4.38,4.38,0,0,1-1,.68,5.38,5.38,0,0,1-3,.49A.53.53,0,0,1,346.82,67.56Z"/><path class="cls-6" d="M358.43,66.89a5,5,0,0,1-.34-2.84,3.22,3.22,0,0,1,.36-1,1.33,1.33,0,0,1,.76-.67c.72-.29,1.89-.21,2.45-.62a2.12,2.12,0,0,0,.72-2,10.57,10.57,0,0,1,0-1.27,4.19,4.19,0,0,1,.29-1,4.4,4.4,0,0,1,1-1.8,4.83,4.83,0,0,1,1.91-1,7.31,7.31,0,0,1,2.87-.28.55.55,0,0,1,.47.37,7.61,7.61,0,0,1,.37,2.86,5,5,0,0,1-.6,2.09,7.15,7.15,0,0,1-2.5,1.86,8.18,8.18,0,0,1-1.23.31A2.14,2.14,0,0,0,363.17,63c-.27.63.07,1.76-.05,2.52a1.35,1.35,0,0,1-.49.9,3.09,3.09,0,0,1-.89.57,4.92,4.92,0,0,1-2.84.3A.6.6,0,0,1,358.43,66.89Z"/><path class="cls-6" d="M368.44,69.9a5.14,5.14,0,0,1-.43-2.72,3.07,3.07,0,0,1,.32-.94,1.21,1.21,0,0,1,.71-.61c.7-.23,1.83-.11,2.36-.47s.68-1,.63-1.87a9.67,9.67,0,0,1,0-1.2,3.34,3.34,0,0,1,.25-1,3.57,3.57,0,0,1,.87-1.67,4.16,4.16,0,0,1,1.82-.91,7,7,0,0,1,2.76-.15.57.57,0,0,1,.47.37,7.33,7.33,0,0,1,.45,2.74,4.25,4.25,0,0,1-.51,2,3.77,3.77,0,0,1-1.45,1.21,3.68,3.68,0,0,1-.91.45,9.83,9.83,0,0,1-1.18.24c-.82.13-1.47.4-1.68,1s.11,1.68,0,2.4a1.19,1.19,0,0,1-.44.83,2.87,2.87,0,0,1-.85.51,5.08,5.08,0,0,1-2.74.16A.59.59,0,0,1,368.44,69.9Z"/><path class="cls-6" d="M405.81,58.37a5.12,5.12,0,0,1,2.75.16,3,3,0,0,1,.84.51,1.2,1.2,0,0,1,.45.83c.08.72-.28,1.81,0,2.4s.86.89,1.69,1a9.28,9.28,0,0,1,1.17.24,3.94,3.94,0,0,1,.92.45A3.85,3.85,0,0,1,415,65.19a4.37,4.37,0,0,1,.5,2,7.14,7.14,0,0,1-.45,2.74.55.55,0,0,1-.46.37,7.07,7.07,0,0,1-2.77-.15,4.22,4.22,0,0,1-1.82-.91,3.77,3.77,0,0,1-.87-1.67,3.68,3.68,0,0,1-.25-1,8.1,8.1,0,0,1,0-1.2,1.9,1.9,0,0,0-.64-1.87c-.53-.36-1.66-.24-2.35-.47a1.2,1.2,0,0,1-.72-.61,3.06,3.06,0,0,1-.31-.94,5,5,0,0,1,.42-2.72A.6.6,0,0,1,405.81,58.37Z"/><path class="cls-6" d="M415.09,54.32a4.87,4.87,0,0,1,2.79.21,3.2,3.2,0,0,1,.86.53,1.23,1.23,0,0,1,.47.85c.1.74-.25,1.85,0,2.46A2,2,0,0,0,421,59.43a7.27,7.27,0,0,1,1.2.26,6.41,6.41,0,0,1,2.42,1.73,4.56,4.56,0,0,1,.56,2,7.23,7.23,0,0,1-.41,2.79.58.58,0,0,1-.47.38,7.2,7.2,0,0,1-2.81-.19,4.46,4.46,0,0,1-1.85-1,4,4,0,0,1-.92-1.72,4.4,4.4,0,0,1-.27-1,8.41,8.41,0,0,1,0-1.23,2,2,0,0,0-.68-1.91c-.54-.38-1.7-.27-2.4-.52a1.25,1.25,0,0,1-.73-.63,2.88,2.88,0,0,1-.34-1,4.75,4.75,0,0,1,.38-2.77A.63.63,0,0,1,415.09,54.32Z"/><path class="cls-6" d="M424.05,53.32a5.41,5.41,0,0,1,3,.34,4.11,4.11,0,0,1,1,.63,1.74,1.74,0,0,1,.62,1c.21.82,0,2,.35,2.71a2.63,2.63,0,0,0,2,1.25,9.94,9.94,0,0,1,1.33.33,5.72,5.72,0,0,1,1.07.57,5.51,5.51,0,0,1,1.78,1.45,6,6,0,0,1,.88,2.25,8,8,0,0,1-.05,3.07.5.5,0,0,1-.45.4,8.05,8.05,0,0,1-3.05-.32,6.12,6.12,0,0,1-2.13-1.14,5.57,5.57,0,0,1-1.22-1.95,4.84,4.84,0,0,1-.44-1.12,9.72,9.72,0,0,1-.17-1.36,2.64,2.64,0,0,0-1-2.15c-.64-.44-1.86-.36-2.65-.67a1.69,1.69,0,0,1-.88-.73,3.89,3.89,0,0,1-.5-1.07,5.32,5.32,0,0,1,0-3.05A.53.53,0,0,1,424.05,53.32Z"/><path class="cls-6" d="M395.8,47.6A5.15,5.15,0,0,1,398,45.93a2.78,2.78,0,0,1,1-.17,1.19,1.19,0,0,1,.88.34c.53.49,1,1.55,1.53,1.84s1.22.1,1.93-.34a10.09,10.09,0,0,1,1-.59,3.72,3.72,0,0,1,1-.25,3.64,3.64,0,0,1,1.88,0,4.27,4.27,0,0,1,1.65,1.16,7.14,7.14,0,0,1,1.44,2.36.57.57,0,0,1-.11.59,7.05,7.05,0,0,1-2.18,1.7,4.11,4.11,0,0,1-2,.5,3.71,3.71,0,0,1-1.74-.69,3.38,3.38,0,0,1-.82-.59,8,8,0,0,1-.77-.92c-.5-.66-1.05-1.1-1.69-1s-1.41.91-2.08,1.18a1.14,1.14,0,0,1-.94,0,2.79,2.79,0,0,1-.84-.49,5,5,0,0,1-1.44-2.34A.59.59,0,0,1,395.8,47.6Z"/><path class="cls-6" d="M406.81,31a5.44,5.44,0,0,1,2.76-1.46,4.67,4.67,0,0,1,1.23-.07,1.93,1.93,0,0,1,1.11.43c.68.56,1.23,1.68,2,2a2.81,2.81,0,0,0,2.45-.13,10.64,10.64,0,0,1,1.32-.49,9.57,9.57,0,0,1,3.63,0,6.27,6.27,0,0,1,2.11,1.34,8.07,8.07,0,0,1,1.84,2.55.47.47,0,0,1-.13.58,8.06,8.06,0,0,1-2.77,1.49,6.36,6.36,0,0,1-2.48.29,5.9,5.9,0,0,1-2.22-.89,6.06,6.06,0,0,1-1.06-.67,12,12,0,0,1-1-1,2.81,2.81,0,0,0-2.15-1.19c-.8,0-1.79.77-2.64,1a1.85,1.85,0,0,1-1.19-.09,4.46,4.46,0,0,1-1.08-.6,5.48,5.48,0,0,1-1.84-2.51A.52.52,0,0,1,406.81,31Z"/><path class="cls-6" d="M400,38.17a5,5,0,0,1,2.49-1.49,3.36,3.36,0,0,1,1.08-.09,1.45,1.45,0,0,1,1,.41c.57.54,1,1.64,1.64,2a2.25,2.25,0,0,0,2.17-.17,9.78,9.78,0,0,1,1.18-.51,4.88,4.88,0,0,1,1.11-.16,4.57,4.57,0,0,1,2.09.12,5.22,5.22,0,0,1,1.81,1.3,7.49,7.49,0,0,1,1.52,2.5.52.52,0,0,1-.14.58,7.36,7.36,0,0,1-2.5,1.53,5.12,5.12,0,0,1-2.2.32,4.62,4.62,0,0,1-1.92-.84,4.24,4.24,0,0,1-.9-.66,8.34,8.34,0,0,1-.83-1,2.23,2.23,0,0,0-1.84-1.14c-.72,0-1.61.79-2.37,1a1.45,1.45,0,0,1-1.05-.07,3.33,3.33,0,0,1-.92-.57,5,5,0,0,1-1.53-2.47A.58.58,0,0,1,400,38.17Z"/><path class="cls-6" d="M358,82a5.26,5.26,0,0,1,2.16,2.11,3.89,3.89,0,0,1,.4,1.09,1.63,1.63,0,0,1-.11,1.12c-.34.77-1.27,1.56-1.41,2.31a2.58,2.58,0,0,0,.8,2.19,9.81,9.81,0,0,1,.84,1.07,5,5,0,0,1,.48,1.09,5.46,5.46,0,0,1,.5,2.2,6,6,0,0,1-.71,2.28A8.06,8.06,0,0,1,359,99.78a.51.51,0,0,1-.6,0,7.71,7.71,0,0,1-2.2-2.11,5.9,5.9,0,0,1-1-2.18,5.26,5.26,0,0,1,.25-2.24,5,5,0,0,1,.36-1.14,10.11,10.11,0,0,1,.7-1.15,2.57,2.57,0,0,0,.56-2.27c-.23-.73-1.24-1.42-1.66-2.14a1.61,1.61,0,0,1-.24-1.1,3.67,3.67,0,0,1,.28-1.13,5.3,5.3,0,0,1,1.9-2.34A.55.55,0,0,1,358,82Z"/><path class="cls-6" d="M365.63,76.49a5,5,0,0,1,2.1,1.9,3.28,3.28,0,0,1,.37,1,1.3,1.3,0,0,1-.13,1c-.37.67-1.31,1.36-1.47,2a2.09,2.09,0,0,0,.75,2,9.68,9.68,0,0,1,.8,1,4.5,4.5,0,0,1,.46,1,4.33,4.33,0,0,1,.44,2,5,5,0,0,1-.77,2,7.31,7.31,0,0,1-2,2,.55.55,0,0,1-.6,0,7.44,7.44,0,0,1-2.14-1.9,4.79,4.79,0,0,1-.9-1.94,4.3,4.3,0,0,1,.3-2,4.14,4.14,0,0,1,.39-1,8.28,8.28,0,0,1,.73-1,2.1,2.1,0,0,0,.61-2c-.2-.65-1.19-1.27-1.61-1.92a1.34,1.34,0,0,1-.2-1,3.13,3.13,0,0,1,.3-1,4.9,4.9,0,0,1,2-2A.61.61,0,0,1,365.63,76.49Z"/><path class="cls-6" d="M375.18,73.26a4.84,4.84,0,0,1,2,1.88,3,3,0,0,1,.34.94,1.24,1.24,0,0,1-.17.94c-.39.63-1.36,1.25-1.54,1.88a1.92,1.92,0,0,0,.68,1.88,9.09,9.09,0,0,1,.77.94,4.31,4.31,0,0,1,.42.94,3.84,3.84,0,0,1,.37,1.88,4.47,4.47,0,0,1-.84,1.88,7.17,7.17,0,0,1-2.07,1.88.56.56,0,0,1-.6,0,7.3,7.3,0,0,1-2.07-1.88,4.45,4.45,0,0,1-.83-1.88,3.84,3.84,0,0,1,.37-1.88,3.88,3.88,0,0,1,.42-.94,9.09,9.09,0,0,1,.77-.94,1.92,1.92,0,0,0,.68-1.88c-.18-.63-1.15-1.25-1.54-1.88a1.19,1.19,0,0,1-.17-.94,2.74,2.74,0,0,1,.34-.94,4.8,4.8,0,0,1,2-1.88A.61.61,0,0,1,375.18,73.26Z"/><path class="cls-6" d="M409.72,73.44a5.05,5.05,0,0,1,1.93,2,2.67,2.67,0,0,1,.29,1,1.21,1.21,0,0,1-.22.92c-.43.6-1.42,1.16-1.64,1.77a1.91,1.91,0,0,0,.58,1.9,10,10,0,0,1,.71,1,3.49,3.49,0,0,1,.38,1,3.85,3.85,0,0,1,.27,1.87,4.33,4.33,0,0,1-.95,1.82,7.23,7.23,0,0,1-2.16,1.75.55.55,0,0,1-.6,0,7.06,7.06,0,0,1-1.95-2,4.3,4.3,0,0,1-.75-1.9,3.77,3.77,0,0,1,.48-1.84,3.43,3.43,0,0,1,.47-.91,9.48,9.48,0,0,1,.82-.89c.59-.59,1-1.19.77-1.82s-1.07-1.3-1.43-1.94a1.18,1.18,0,0,1-.12-.94,2.88,2.88,0,0,1,.39-.91,5,5,0,0,1,2.13-1.75A.59.59,0,0,1,409.72,73.44Z"/><path class="cls-6" d="M418.51,76.53a5,5,0,0,1,1.88,2.12,3,3,0,0,1,.26,1,1.3,1.3,0,0,1-.24,1c-.44.63-1.45,1.22-1.68,1.86a2.08,2.08,0,0,0,.52,2,10,10,0,0,1,.7,1,4.7,4.7,0,0,1,.34,1,4.34,4.34,0,0,1,.23,2,4.87,4.87,0,0,1-1,1.91,7.28,7.28,0,0,1-2.21,1.81.56.56,0,0,1-.6,0,7.39,7.39,0,0,1-1.91-2.13,4.81,4.81,0,0,1-.69-2,4.15,4.15,0,0,1,.52-1.94,4.59,4.59,0,0,1,.49-1,10.24,10.24,0,0,1,.85-.93,2.08,2.08,0,0,0,.82-1.92c-.13-.67-1.05-1.4-1.38-2.08a1.27,1.27,0,0,1-.1-1,3.31,3.31,0,0,1,.41-1,4.92,4.92,0,0,1,2.18-1.82A.61.61,0,0,1,418.51,76.53Z"/><path class="cls-6" d="M427.31,83.22a5.44,5.44,0,0,1,1.79,2.49,4,4,0,0,1,.22,1.17A1.65,1.65,0,0,1,429,88c-.46.72-1.5,1.38-1.76,2.12a2.67,2.67,0,0,0,.45,2.35,11.16,11.16,0,0,1,.65,1.22,5.25,5.25,0,0,1,.3,1.18,5.68,5.68,0,0,1,.14,2.31,6.15,6.15,0,0,1-1.06,2.19,8,8,0,0,1-2.3,2.07.48.48,0,0,1-.59-.06A8,8,0,0,1,423,98.9a6.1,6.1,0,0,1-.6-2.37,5.71,5.71,0,0,1,.6-2.24,6.06,6.06,0,0,1,.53-1.09,10.64,10.64,0,0,1,.89-1.06,2.65,2.65,0,0,0,.9-2.21c-.1-.78-1-1.64-1.29-2.44a1.7,1.7,0,0,1-.06-1.15,4.18,4.18,0,0,1,.45-1.11,5.5,5.5,0,0,1,2.26-2.07A.57.57,0,0,1,427.31,83.22Z"/></g></svg>