<?xml version="1.0" standalone="no"?>
<!DOCTYPE svg PUBLIC "-//W3C//DTD SVG 20010904//EN"
 "http://www.w3.org/TR/2001/REC-SVG-20010904/DTD/svg10.dtd">
<svg version="1.0" xmlns="http://www.w3.org/2000/svg"
 width="2290.000000pt" height="2481.000000pt" viewBox="0 0 2290.000000 2481.000000"
 preserveAspectRatio="xMidYMid meet">

<g transform="translate(0.000000,2481.000000) scale(0.100000,-0.100000)"
fill="#000000" stroke="none">
<path d="M11501 22819 c-84 -15 -227 -66 -295 -105 -198 -116 -345 -306 -408
-529 -19 -68 -23 -103 -22 -230 0 -134 3 -159 28 -240 74 -244 229 -427 451
-536 131 -63 238 -89 378 -89 130 0 236 20 340 65 108 46 178 90 252 158 368
335 381 911 30 1262 -109 109 -237 182 -400 227 -81 23 -271 32 -354 17z m226
-89 c81 -39 218 -172 271 -262 124 -209 185 -486 162 -730 -23 -244 -116 -437
-253 -528 -74 -50 -122 -63 -217 -58 -167 7 -326 139 -443 365 -88 172 -127
342 -127 557 0 185 23 298 84 422 94 190 217 278 378 271 62 -3 90 -10 145
-37z"/>
<path d="M10046 22720 c-33 -21 -113 -36 -236 -45 -271 -20 -471 -110 -631
-283 -73 -80 -116 -148 -164 -259 -52 -119 -69 -222 -62 -372 7 -150 22 -213
87 -346 83 -172 214 -305 385 -390 120 -59 217 -85 345 -92 181 -9 315 23 507
123 98 51 107 54 178 54 50 0 92 -6 125 -19 46 -18 50 -18 46 -3 -3 9 -31 150
-62 312 -31 162 -60 299 -64 303 -5 5 -17 6 -28 3 -16 -6 -20 -19 -26 -92 -21
-272 -137 -484 -310 -565 -238 -112 -551 74 -740 440 -158 306 -185 667 -65
891 88 165 243 238 484 227 178 -8 324 -67 455 -185 50 -44 58 -49 78 -38 20
11 16 18 -104 161 -173 206 -162 197 -198 175z"/>
<path d="M13593 22565 c-256 -46 -471 -194 -605 -416 -74 -123 -109 -243 -115
-405 -11 -266 76 -486 265 -666 186 -177 439 -265 692 -238 142 14 224 -9 311
-87 22 -20 41 -34 42 -32 4 5 145 624 143 625 0 1 -12 4 -27 7 -23 6 -28 1
-58 -61 -65 -132 -177 -262 -287 -332 -121 -76 -276 -91 -390 -35 -215 105
-363 458 -339 810 24 363 169 641 395 756 60 30 188 37 282 15 213 -50 393
-193 486 -388 39 -80 51 -97 70 -98 12 0 22 4 22 9 0 5 -27 103 -60 217 -33
114 -60 208 -60 208 0 1 -28 1 -63 2 -47 0 -98 13 -212 51 -210 72 -335 87
-492 58z"/>
<path d="M15370 21969 c-84 -9 -220 -48 -295 -87 -322 -162 -517 -519 -475
-870 31 -260 161 -480 365 -621 485 -336 1155 -110 1329 447 59 189 57 360 -5
547 -128 383 -512 627 -919 584z m368 -100 c113 -56 205 -188 248 -354 25 -98
26 -338 1 -455 -52 -244 -151 -435 -301 -585 -91 -90 -185 -146 -280 -165
-206 -42 -387 107 -457 375 -31 116 -30 330 0 475 65 308 247 586 450 690 79
40 114 49 197 49 71 1 88 -3 142 -30z"/>
<path d="M6967 21628 l-95 -163 39 -3 c21 -2 39 -6 39 -9 0 -3 41 -328 91
-722 50 -395 88 -734 85 -755 -2 -22 -18 -59 -35 -82 l-30 -43 72 33 c40 18
113 54 162 79 77 39 85 46 59 46 -18 1 -39 10 -52 24 -19 20 -26 55 -52 262
-16 132 -28 240 -27 241 1 0 110 54 241 118 l240 117 80 -78 c270 -260 276
-267 276 -296 0 -16 -5 -37 -10 -47 -11 -21 98 27 335 148 l120 61 -50 1 c-27
0 -67 8 -87 18 -21 10 -292 258 -629 577 -326 308 -612 577 -635 598 l-42 37
-95 -162z m421 -563 c122 -115 222 -212 222 -215 -1 -3 -91 -49 -201 -102
-130 -64 -201 -93 -204 -85 -2 7 -21 154 -42 329 -38 309 -38 316 -18 300 12
-10 121 -111 243 -227z"/>
<path d="M17050 21226 c5 -15 10 -46 10 -69 0 -40 -25 -75 -465 -657 -256
-338 -472 -618 -481 -623 -9 -5 -39 -12 -67 -16 l-49 -6 139 -106 139 -106
-14 44 c-11 33 -12 53 -5 76 9 31 803 1091 810 1083 4 -3 -198 -1517 -213
-1602 -6 -31 -1 -35 160 -158 92 -69 169 -126 172 -126 2 0 0 9 -6 19 -5 11
-10 40 -10 66 0 45 8 57 463 660 423 562 466 615 504 631 23 9 56 14 73 12 16
-3 30 -4 30 -2 0 2 -260 197 -276 207 -8 4 -6 -8 3 -36 11 -31 12 -51 5 -74
-11 -35 -804 -1091 -809 -1076 -3 8 198 1512 213 1599 5 29 0 34 -133 134 -76
57 -153 115 -171 128 l-33 25 11 -27z"/>
<path d="M5717 21016 l-208 -141 46 -7 c25 -3 56 -13 69 -21 27 -18 926 -1344
978 -1442 69 -132 89 -285 47 -367 l-21 -41 31 22 c156 111 251 265 251 406 0
121 -5 130 -520 890 -514 760 -499 734 -470 811 6 15 9 28 8 29 -2 1 -97 -61
-211 -139z"/>
<path d="M4619 20138 c-6 -24 -28 -105 -50 -182 -21 -76 -39 -141 -39 -143 0
-2 9 1 19 7 53 28 41 52 335 -681 301 -751 289 -712 250 -806 -11 -28 7 -15
122 83 73 64 134 117 134 118 0 1 -14 1 -30 -2 -58 -8 -72 12 -164 244 -48
119 -85 222 -82 229 5 14 372 334 391 341 7 3 105 -46 219 -108 227 -125 249
-144 229 -198 l-12 -31 33 28 c17 15 107 93 199 172 147 127 189 166 158 146
-28 -17 -114 -24 -149 -12 -20 7 -376 199 -791 425 -414 227 -755 412 -757
412 -2 0 -8 -19 -15 -42z m492 -565 c159 -87 288 -161 286 -165 -3 -10 -327
-288 -335 -288 -8 0 -253 610 -245 610 3 0 135 -71 294 -157z"/>
<path d="M18587 20006 c3 -25 3 -56 -1 -70 -4 -16 -147 -158 -394 -389 -213
-201 -402 -385 -420 -411 -141 -196 -160 -459 -50 -684 51 -103 178 -228 287
-281 202 -98 415 -94 614 11 64 34 82 51 540 481 l319 299 63 -4 63 -4 -110
118 c-61 65 -114 121 -118 123 -5 3 -8 -14 -8 -37 1 -24 -2 -53 -6 -65 -4 -12
-197 -200 -429 -418 -388 -365 -429 -399 -504 -437 -72 -36 -92 -41 -170 -45
-51 -3 -112 -1 -143 6 -127 27 -261 125 -311 226 -20 42 -24 65 -24 145 0 150
-17 130 538 650 514 482 506 476 584 452 l35 -11 -23 27 c-13 14 -93 101 -178
192 -85 91 -156 166 -157 168 -1 2 1 -17 3 -42z"/>
<path d="M3503 19112 l-132 -160 235 -568 c129 -312 232 -569 230 -571 -2 -2
-263 63 -579 145 l-576 148 -98 -120 c-54 -66 -115 -141 -135 -167 l-38 -47
40 14 c25 9 52 11 74 6 25 -5 195 -138 618 -483 320 -262 592 -487 603 -499
15 -17 20 -36 20 -79 l0 -56 111 135 c61 74 111 136 110 137 -1 1 -20 -3 -43
-9 -30 -7 -51 -7 -72 0 -29 10 -1006 801 -998 808 2 2 246 -59 543 -135 296
-77 546 -141 555 -143 10 -2 36 21 68 58 l51 62 -231 558 c-278 671 -252 607
-236 597 8 -4 241 -194 519 -421 481 -393 506 -415 517 -456 5 -23 8 -52 4
-64 -3 -12 -3 -22 0 -22 2 0 73 84 157 188 194 237 180 218 153 204 -36 -20
-105 -15 -140 11 -74 51 -1172 953 -1179 967 -4 8 -10 39 -13 69 l-6 54 -132
-161z"/>
<path d="M19658 18477 c-114 -78 -212 -146 -217 -152 -6 -7 -5 -16 4 -28 13
-18 18 -17 109 17 159 60 290 65 386 16 81 -41 277 -257 254 -280 -5 -5 -301
-207 -659 -449 -697 -473 -672 -459 -751 -426 -25 10 -32 11 -27 2 14 -21 188
-278 239 -353 l49 -70 1 47 c0 26 8 58 16 71 9 14 310 224 669 468 l653 443
23 -29 c41 -51 123 -227 134 -286 21 -120 -31 -250 -153 -382 -62 -67 -69 -78
-57 -94 7 -9 14 -19 16 -21 1 -1 103 66 227 150 216 146 225 153 212 173 -233
351 -900 1322 -909 1323 -6 1 -105 -62 -219 -140z"/>
<path d="M7686 17602 c-3 -5 579 -587 1292 -1295 713 -707 1367 -1356 1452
-1441 l155 -156 -87 34 c-446 175 -997 312 -1460 362 -187 21 -558 23 -713 6
-362 -42 -702 -160 -920 -321 -79 -59 -532 -362 -1082 -726 l-288 -190 85 -3
c77 -2 4352 -91 4431 -92 25 -1 -14 -19 -146 -69 -1026 -386 -1798 -881 -2161
-1383 -69 -96 -155 -259 -188 -358 -17 -52 -68 -347 -166 -969 -78 -491 -140
-898 -138 -905 2 -7 772 736 1713 1651 940 915 1714 1663 1718 1663 5 0 6 -28
3 -62 -3 -35 -17 -396 -32 -803 -14 -407 -27 -750 -30 -762 -3 -17 -13 -24
-42 -28 -20 -3 -104 -19 -187 -35 -1261 -245 -2297 -1210 -2639 -2455 -151
-553 -164 -1130 -36 -1690 115 -501 346 -977 676 -1390 119 -148 371 -399 524
-521 447 -355 943 -586 1490 -693 247 -48 332 -55 655 -56 340 0 457 11 718
66 775 163 1465 584 1964 1199 667 821 918 1903 682 2939 -187 818 -671 1541
-1362 2036 -447 320 -1005 539 -1544 606 l-102 13 -6 80 c-13 172 -85 1529
-82 1533 2 2 766 -754 1698 -1679 l1694 -1682 7 159 c12 285 -13 753 -58 1050
-86 576 -263 1017 -516 1281 -104 109 -269 251 -446 387 -519 395 -1075 677
-1602 813 -74 19 -136 36 -137 38 -2 2 803 7 1789 11 986 4 1984 10 2218 14
l424 6 -859 624 c-966 702 -858 636 -1095 663 -149 17 -695 17 -850 0 -572
-63 -1073 -196 -1588 -424 -63 -27 -115 -48 -117 -46 -2 2 1716 1793 2680
2794 l200 207 -120 -7 c-405 -23 -951 -113 -1311 -215 -808 -230 -1299 -570
-1488 -1032 -18 -46 -93 -192 -165 -324 -322 -589 -587 -1173 -641 -1418 -7
-31 -15 -56 -17 -54 -2 2 -19 66 -37 143 -146 590 -437 1190 -802 1649 -111
140 -417 446 -554 554 -129 102 -321 230 -456 305 -110 60 -202 89 -614 191
-404 100 -763 170 -1020 200 -136 16 -356 20 -364 7z m4439 -6553 c997 -215
1816 -1004 2065 -1989 162 -642 95 -1297 -195 -1885 -126 -258 -264 -457 -470
-681 l-87 -95 -32 26 c-93 75 -316 214 -454 283 -215 107 -406 175 -637 227
-66 15 -122 28 -124 30 -3 4 -230 4019 -231 4088 0 32 -5 32 165 -4z m-1030
-71 c-3 -51 -19 -451 -35 -888 -17 -437 -50 -1324 -75 -1970 -25 -646 -45
-1188 -45 -1205 0 -29 -3 -31 -113 -69 -321 -110 -643 -298 -912 -534 l-80
-70 -25 18 c-14 10 -66 55 -115 101 -501 464 -799 1053 -875 1734 -15 132 -12
452 5 596 124 1064 857 1957 1875 2287 131 42 326 90 373 91 l27 1 -5 -92z"/>
<path d="M3176 5934 c-108 -80 -196 -151 -196 -157 1 -22 39 -59 52 -51 7 4
99 70 203 148 105 77 192 141 193 142 6 4 -41 64 -49 64 -4 0 -95 -66 -203
-146z"/>
<path d="M19983 5991 c-75 -55 -93 -146 -36 -191 36 -28 78 -25 149 11 65 33
94 33 94 0 0 -21 -63 -81 -85 -81 -20 0 -27 -15 -19 -46 6 -23 10 -25 37 -20
17 3 46 18 65 32 76 59 95 143 43 195 -37 37 -66 37 -141 -1 -62 -32 -94 -37
-106 -19 -11 19 18 58 57 75 35 16 36 19 27 45 -13 37 -34 37 -85 0z"/>
<path d="M19610 5748 l-23 -32 42 -37 c36 -32 41 -41 32 -57 -15 -27 21 -61
44 -42 17 14 22 10 128 -83 90 -78 147 -75 195 11 l23 41 -32 16 c-17 9 -32
15 -33 13 -1 -2 -10 -15 -19 -30 -10 -16 -23 -28 -31 -28 -13 0 -148 114 -154
130 -2 4 11 24 27 43 l30 34 -23 22 -23 22 -31 -36 c-17 -19 -35 -35 -39 -35
-4 0 -26 18 -48 40 l-41 40 -24 -32z"/>
<path d="M3288 5669 c-67 -55 -127 -106 -133 -114 -7 -10 -3 -21 14 -39 l24
-25 71 58 c85 70 106 81 144 81 21 0 38 -9 56 -31 48 -57 37 -79 -91 -183
l-72 -58 21 -29 c12 -16 24 -29 26 -29 2 0 48 36 102 80 74 61 102 91 114 122
16 39 16 42 -6 87 -18 37 -34 51 -75 72 -46 22 -51 27 -38 40 12 12 11 18 -10
41 l-23 27 -124 -100z"/>
<path d="M19545 5476 c-38 -17 -90 -72 -104 -109 -26 -69 -6 -143 52 -194 73
-64 161 -64 234 0 38 34 72 97 73 135 0 18 -5 22 -34 22 -31 0 -34 -3 -40 -34
-9 -48 -65 -96 -112 -96 -42 0 -98 49 -110 94 -13 53 37 119 96 127 20 3 26
11 28 37 3 29 1 32 -25 32 -15 -1 -41 -7 -58 -14z"/>
<path d="M3631 5318 c-50 -24 -98 -85 -107 -135 -14 -76 39 -161 116 -184 32
-10 38 -15 29 -26 -14 -15 15 -67 34 -60 13 4 385 339 386 347 0 3 -10 17 -22
33 l-23 27 -85 -76 -84 -77 -5 39 c-8 52 -35 91 -81 115 -50 25 -104 24 -158
-3z m158 -93 c34 -39 39 -71 16 -115 -21 -41 -53 -60 -101 -60 -99 0 -138 111
-62 182 23 22 40 28 73 28 37 0 47 -5 74 -35z"/>
<path d="M19227 5172 l-27 -28 66 -64 c74 -73 94 -105 94 -150 0 -37 -38 -80
-71 -80 -14 0 -55 32 -113 90 l-92 90 -27 -28 -27 -28 99 -98 c85 -84 103 -98
139 -103 70 -9 142 52 142 122 0 27 9 32 28 13 10 -10 18 -6 39 15 l28 27
-125 125 -126 126 -27 -29z"/>
<path d="M18766 4971 l-26 -27 71 -79 72 -79 -44 -12 c-121 -36 -161 -177 -78
-276 49 -60 134 -85 202 -59 42 16 87 70 93 112 6 38 7 39 26 22 18 -16 20
-16 43 8 l25 25 -127 139 c-69 77 -150 166 -178 197 l-53 57 -26 -28z m190
-267 c29 -20 54 -63 54 -96 0 -38 -35 -85 -73 -97 -47 -16 -99 5 -127 51 -58
93 54 202 146 142z"/>
<path d="M3990 4938 c-98 -50 -131 -158 -77 -251 107 -182 372 -81 333 128
-13 69 -107 144 -181 145 -17 0 -51 -10 -75 -22z m149 -84 c77 -65 29 -184
-75 -184 -98 0 -137 109 -64 181 38 39 95 40 139 3z"/>
<path d="M4324 4529 l-118 -132 29 -23 29 -23 81 84 c73 78 83 85 118 85 48 0
87 -36 87 -79 0 -22 -19 -50 -80 -120 l-80 -90 27 -20 c14 -12 29 -21 33 -21
19 0 171 185 181 220 21 71 -36 146 -120 157 -38 5 -40 7 -26 23 13 15 12 19
-14 44 l-29 27 -118 -132z"/>
<path d="M18476 4460 c-42 -13 -90 -49 -117 -88 -19 -28 -24 -48 -24 -93 1
-69 33 -123 96 -158 112 -63 270 31 269 160 -1 77 -63 158 -138 179 -42 11
-47 11 -86 0z m110 -104 c28 -28 34 -41 34 -78 0 -77 -74 -126 -142 -94 -106
51 -82 206 32 206 34 0 48 -6 76 -34z"/>
<path d="M4755 4265 c-43 -22 -94 -82 -106 -127 -28 -106 51 -209 173 -226
l39 -5 -3 34 c-3 29 -7 34 -41 42 -51 12 -97 59 -97 100 0 61 11 59 114 -26
l99 -81 24 30 c52 65 52 151 -1 212 -52 60 -136 79 -201 47z m142 -87 c16 -15
23 -33 23 -60 0 -21 -4 -38 -9 -38 -5 0 -37 23 -71 52 -58 48 -61 53 -44 65
24 18 71 9 101 -19z"/>
<path d="M18157 4212 c-9 -10 -22 -33 -28 -51 -10 -29 -13 -31 -28 -17 -14 13
-19 12 -44 -10 l-29 -25 49 -62 c26 -35 73 -95 103 -134 30 -40 58 -72 62 -73
4 0 19 10 33 23 l26 22 -61 79 c-50 65 -60 85 -60 118 0 28 7 46 25 64 l25 25
-20 30 c-25 34 -31 35 -53 11z"/>
<path d="M17729 4076 c-35 -12 -209 -131 -209 -143 0 -4 273 -387 289 -405 3
-4 21 4 38 18 l32 25 -51 71 -52 71 26 21 c15 12 44 36 66 53 55 45 80 109 63
164 -16 54 -74 116 -119 129 -44 12 -39 12 -83 -4z m95 -107 c46 -55 33 -99
-48 -157 l-45 -33 -51 68 c-27 37 -50 71 -50 75 0 4 24 23 52 43 68 45 107 46
142 4z"/>
<path d="M5129 3981 c-41 -42 -39 -89 7 -164 39 -62 39 -87 0 -87 -26 0 -86
60 -86 86 0 13 -6 15 -27 9 -43 -10 -46 -19 -24 -63 37 -73 120 -121 176 -102
77 25 90 91 37 176 -33 53 -40 88 -21 100 18 10 56 -16 75 -52 10 -19 19 -34
20 -34 0 0 15 5 32 11 l31 11 -18 36 c-49 96 -144 130 -202 73z"/>
<path d="M5562 3908 c-7 -7 -12 -24 -12 -38 0 -14 5 -31 12 -38 7 -7 24 -12
38 -12 14 0 31 5 38 12 7 7 12 24 12 38 0 14 -5 31 -12 38 -7 7 -24 12 -38 12
-14 0 -31 -5 -38 -12z"/>
<path d="M5406 3660 l-97 -141 23 -19 c13 -11 29 -19 36 -17 7 1 55 63 107
137 l94 135 -25 23 c-14 12 -29 22 -33 22 -4 0 -51 -63 -105 -140z"/>
<path d="M17076 3605 l-30 -24 32 -50 c30 -49 30 -51 12 -61 -19 -10 -19 -12
-3 -36 12 -19 22 -24 38 -20 19 5 30 -7 80 -84 65 -104 97 -127 149 -110 18 6
46 24 61 40 l29 30 -24 25 -23 24 -29 -24 c-16 -13 -35 -22 -43 -19 -8 3 -37
43 -65 87 l-50 82 22 15 c58 39 61 45 47 68 -17 28 -21 27 -68 -2 l-39 -25
-33 54 -34 54 -29 -24z"/>
<path d="M5695 3596 c-38 -17 -90 -72 -104 -109 -19 -49 -13 -120 12 -158 30
-46 101 -82 147 -74 28 5 33 4 23 -6 -20 -20 -16 -32 16 -50 l29 -17 93 146
93 145 -23 18 c-25 21 -51 25 -51 9 0 -5 -4 -10 -10 -10 -5 0 -10 6 -10 14 0
23 -51 78 -87 92 -41 17 -89 17 -128 0z m131 -84 c27 -21 44 -54 44 -84 0 -36
-37 -88 -74 -103 -40 -17 -72 -10 -108 23 -22 21 -28 35 -28 70 0 37 6 50 34
78 27 27 42 34 73 34 21 0 48 -8 59 -18z"/>
<path d="M6200 3470 c-18 -38 -32 -71 -29 -74 2 -2 18 -7 36 -10 30 -7 32 -6
51 46 35 94 35 95 10 102 -13 3 -26 6 -29 6 -3 0 -20 -31 -39 -70z"/>
<path d="M16926 3365 c-10 -8 -23 -16 -29 -18 -5 -1 14 -43 42 -93 60 -105 66
-150 26 -189 -24 -25 -49 -31 -79 -19 -9 4 -44 53 -77 110 l-61 104 -29 -15
c-16 -9 -29 -21 -29 -28 0 -22 119 -215 146 -236 54 -42 149 -15 184 54 8 17
16 32 18 34 1 3 8 -3 15 -12 11 -16 14 -16 45 3 32 19 33 22 19 43 -7 12 -47
79 -87 150 -41 70 -76 127 -79 127 -3 0 -15 -7 -25 -15z"/>
<path d="M6333 3236 c-38 -17 -53 -43 -53 -90 0 -27 11 -48 45 -90 25 -31 45
-63 45 -71 0 -44 -88 -17 -115 35 -18 34 -16 34 -50 18 -34 -15 -32 -31 10
-77 69 -76 154 -93 206 -42 43 44 39 81 -16 152 -52 66 -58 99 -20 99 26 0 75
-39 75 -60 0 -16 25 -12 49 8 l22 17 -25 36 c-40 58 -120 88 -173 65z"/>
<path d="M6902 2887 c-56 -122 -102 -227 -102 -232 0 -9 264 -136 282 -135 6
0 31 62 26 65 -2 0 -48 22 -103 48 -57 26 -99 52 -97 59 2 6 41 95 88 196 47
102 84 186 82 187 -5 4 -67 35 -70 35 -2 0 -49 -100 -106 -223z"/>
<path d="M16418 3088 c-20 -11 -45 -36 -55 -55 -20 -38 -22 -39 -37 -17 -11
15 -15 14 -43 -3 l-32 -19 75 -144 c41 -80 79 -149 84 -154 4 -4 22 0 38 10
l30 17 -49 99 c-27 53 -49 108 -49 121 0 59 77 104 124 73 13 -8 47 -60 75
-115 l52 -101 32 16 c18 9 33 18 35 19 2 2 -25 56 -60 121 -67 124 -96 154
-153 154 -16 0 -47 -10 -67 -22z"/>
<path d="M15936 2851 c-53 -28 -65 -39 -87 -82 -36 -72 -15 -167 50 -222 40
-33 68 -41 131 -35 93 9 169 87 170 173 0 45 -43 129 -81 155 -45 33 -130 38
-183 11z m123 -66 c32 -16 61 -69 61 -110 0 -42 -58 -95 -105 -95 -55 0 -105
52 -105 110 0 51 12 75 48 94 35 19 66 20 101 1z"/>
<path d="M7398 2726 c-49 -15 -85 -48 -109 -99 -46 -102 -8 -199 93 -242 43
-17 110 -20 139 -5 18 10 18 13 4 39 -13 26 -18 28 -59 24 -33 -4 -53 -1 -72
11 -29 20 -60 84 -47 97 5 5 58 -11 122 -37 63 -25 117 -42 122 -37 15 15 27
93 19 126 -21 93 -121 151 -212 123z m117 -91 c16 -15 25 -36 25 -54 l0 -30
-62 26 c-35 14 -74 30 -88 35 l-25 10 24 19 c34 28 96 25 126 -6z"/>
<path d="M15545 2676 c-58 -18 -88 -41 -113 -85 -51 -90 -4 -224 91 -260 67
-25 146 -4 204 54 24 23 43 47 43 53 0 5 -14 15 -32 21 -31 11 -47 3 -48 -21
0 -10 -75 -48 -95 -48 -53 0 -105 60 -105 122 0 65 66 115 134 103 28 -6 34
-3 44 20 16 35 17 33 -25 44 -46 13 -47 13 -98 -3z"/>
<path d="M7825 2546 c-39 -17 -80 -65 -95 -112 -16 -48 -8 -129 17 -162 41
-55 121 -80 181 -58 21 7 23 5 20 -15 -2 -17 4 -24 25 -32 16 -5 32 -5 36 -1
11 12 115 314 110 318 -2 2 -18 8 -36 14 -29 10 -33 8 -39 -11 -6 -20 -7 -20
-21 6 -29 56 -130 83 -198 53z m120 -70 c40 -17 55 -42 55 -91 0 -102 -103
-154 -171 -86 -49 49 -33 142 29 175 34 19 45 19 87 2z"/>
<path d="M8565 2431 c-16 -53 -30 -100 -32 -104 -3 -4 -13 3 -24 17 -27 34
-99 60 -149 53 -148 -20 -202 -242 -79 -324 41 -27 112 -36 156 -20 18 7 21 5
16 -11 -5 -22 0 -26 38 -35 l26 -7 71 243 c40 133 72 247 72 253 0 6 -15 15
-34 21 l-33 10 -28 -96z m-91 -142 c25 -28 28 -38 23 -78 -10 -94 -114 -136
-178 -72 -19 19 -29 40 -29 59 0 117 111 172 184 91z"/>
<path d="M15056 2495 c-54 -19 -102 -69 -117 -122 -25 -92 36 -198 131 -223
82 -22 189 34 219 113 16 42 13 97 -8 142 -22 48 -44 69 -94 90 -44 18 -80 19
-131 0z m104 -70 c64 -33 80 -126 31 -176 -51 -51 -131 -36 -166 31 -21 41
-19 83 6 114 36 46 80 56 129 31z"/>
<path d="M14496 2480 c-118 -46 -178 -168 -146 -298 37 -155 171 -232 324
-188 61 18 127 69 152 118 14 27 14 28 -22 43 -21 8 -38 14 -38 13 -17 -32
-63 -79 -89 -92 -122 -57 -247 35 -247 182 0 54 25 100 72 135 36 27 114 33
162 13 22 -9 40 -15 41 -14 0 2 9 15 18 30 9 15 17 30 17 33 0 3 -19 15 -42
25 -55 25 -138 25 -202 0z"/>
<path d="M8833 2429 c-30 -11 -38 -45 -19 -74 20 -30 49 -32 76 -5 23 23 25
40 8 62 -18 21 -39 27 -65 17z"/>
<path d="M13823 2314 c-51 -26 -63 -77 -37 -171 5 -17 2 -23 -10 -23 -10 0
-16 -8 -16 -22 0 -29 11 -43 30 -43 11 0 23 -35 45 -133 16 -74 33 -133 38
-133 4 1 15 1 25 1 48 1 47 11 -13 267 -4 18 1 22 36 28 40 7 41 8 35 38 -8
39 -7 38 -46 27 -42 -12 -47 -9 -55 40 -9 51 6 70 52 70 33 0 34 2 31 33 -3
30 -6 32 -43 35 -22 1 -54 -5 -72 -14z"/>
<path d="M8790 2287 c0 -1 -20 -77 -44 -169 l-44 -168 36 -10 c20 -5 37 -8 38
-7 6 7 84 330 81 333 -5 5 -67 24 -67 21z"/>
<path d="M9006 2063 c-20 -91 -33 -170 -29 -174 4 -4 21 -9 38 -11 l29 -3 21
95 c24 106 36 135 65 150 27 15 72 12 98 -6 29 -20 29 -73 2 -190 -11 -48 -19
-88 -18 -90 2 -1 19 -5 39 -9 l36 -7 28 127 c23 110 26 133 16 166 -23 76
-108 102 -205 63 -16 -6 -18 -4 -14 14 6 21 5 22 -53 38 -13 4 -22 -25 -53
-163z"/>
<path d="M10385 2148 c-42 -15 -84 -56 -94 -95 -20 -72 24 -135 132 -189 72
-36 87 -52 87 -90 0 -41 -21 -54 -84 -54 -35 0 -54 7 -89 34 l-45 34 -27 -28
-26 -27 40 -35 c127 -108 321 -56 321 86 0 63 -29 100 -111 143 -116 61 -140
92 -99 133 29 29 78 25 132 -9 l46 -29 27 28 27 28 -36 27 c-36 28 -114 56
-150 54 -12 0 -34 -5 -51 -11z"/>
<path d="M9575 2089 c-74 -43 -115 -133 -95 -208 14 -55 52 -96 105 -116 45
-18 106 -14 133 7 9 8 12 4 12 -17 0 -16 -11 -38 -29 -56 -38 -37 -89 -39
-157 -4 -45 23 -50 24 -61 8 -7 -9 -13 -24 -13 -34 0 -25 85 -61 155 -66 80
-6 122 16 152 77 29 58 86 372 69 382 -21 14 -66 9 -66 -8 0 -11 -9 -8 -36 12
-27 21 -50 29 -92 31 -32 2 -66 -2 -77 -8z m152 -94 c32 -32 35 -39 30 -78 -8
-55 -52 -97 -103 -97 -28 0 -44 8 -71 35 -32 32 -35 39 -30 78 8 55 52 97 103
97 28 0 44 -8 71 -35z"/>
<path d="M13417 2058 c-21 -6 -54 -26 -72 -44 -111 -110 -33 -304 122 -304 68
0 110 18 150 63 74 84 42 231 -61 278 -45 20 -81 22 -139 7z m103 -73 c99 -51
66 -204 -43 -205 -56 0 -107 52 -107 108 0 83 78 134 150 97z"/>
<path d="M10882 1948 c-111 -25 -165 -170 -102 -273 58 -94 237 -104 299 -16
27 37 44 108 36 150 -19 104 -121 164 -233 139z m93 -72 c88 -37 81 -179 -10
-204 -65 -18 -135 31 -135 96 0 44 28 92 62 107 42 18 42 18 83 1z"/>
<path d="M12640 1937 c-121 -64 -118 -257 4 -316 69 -34 165 -22 218 26 24 22
23 37 -5 52 -20 11 -29 10 -58 -8 -47 -29 -103 -28 -134 4 -45 44 -36 50 90
60 137 10 138 11 132 56 -16 120 -140 183 -247 126z m146 -79 l27 -33 -44 -7
c-70 -10 -139 -9 -139 3 0 6 13 24 29 40 42 41 90 40 127 -3z"/>
<path d="M11270 1805 c0 -139 11 -182 54 -210 36 -24 107 -23 150 3 35 21 36
21 36 2 0 -17 7 -20 40 -20 l40 0 0 175 0 175 -34 0 -33 0 -7 -61 c-3 -34 -6
-82 -6 -106 0 -56 -21 -97 -58 -112 -35 -15 -79 -5 -92 19 -6 10 -10 73 -10
139 l0 121 -40 0 -40 0 0 -125z"/>
<path d="M12206 1915 c-82 -29 -122 -96 -114 -192 8 -89 62 -143 151 -151 60
-5 112 9 151 39 l26 20 -27 24 c-27 23 -28 23 -52 4 -15 -12 -40 -19 -68 -19
-36 0 -50 6 -74 29 -39 40 -42 114 -5 154 32 35 84 44 129 22 33 -16 37 -15
62 1 l27 18 -26 22 c-27 23 -85 44 -121 44 -11 -1 -37 -7 -59 -15z"/>
<path d="M11776 1874 c-3 -26 -6 -105 -6 -175 l0 -129 34 0 c30 0 34 4 40 31
3 17 6 63 6 101 0 64 3 72 29 99 20 19 40 29 60 29 30 0 31 1 31 46 0 45 -1
46 -27 40 -16 -4 -40 -16 -55 -26 -35 -26 -38 -25 -38 5 0 22 -4 25 -34 25
-32 0 -34 -2 -40 -46z"/>
</g>
</svg>
